<?xml version="1.0" encoding="utf-8"?>
<!-- Generator: Adobe Illustrator 23.0.2, SVG Export Plug-In . SVG Version: 6.00 Build 0)  -->
<svg version="1.1" id="Layer_1" 
	xmlns="http://www.w3.org/2000/svg" 
	xmlns:xlink="http://www.w3.org/1999/xlink" x="0px" y="0px" viewBox="0 0 226 69.8" style="enable-background:new 0 0 226 69.8;" xml:space="preserve">
	<style type="text/css">
	.ddst0{fill:#3F3D56;}
	.ddst1{fill:#F2F2F2;}
	.ddst2{opacity:0.7;}
	.ddst3{opacity:0.1;}
	.ddst4{fill:url(#Path_5_1_);}
	.ddst5{fill:url(#Path_6_1_);}
	.ddst6{fill:#00A3F3;}
	.ddst7{fill:url(#Path_8_1_);}
	.ddst8{fill:url(#Path_9_1_);}
	.ddst9{fill:url(#Path_10_1_);}
	.ddst10{fill:#535461;}
	.ddst11{opacity:0.1;enable-background:new    ;}
	.ddst12{fill:#E0E0E0;}
	</style>
	<path id="Path_1" class="ddst0" d="M219,29.5c0,13-7.7,17.5-17.3,17.5h-0.7c-0.4,0-0.9,0-1.3-0.1c-8.6-0.6-15.3-5.4-15.3-17.5
	c0-12.5,16-28.3,17.2-29.5l0,0l0.1-0.1C201.7,0,219,16.5,219,29.5z"/>
	<path id="Path_2" class="ddst1" d="M201.1,45.1l6.3-8.8l-6.3,9.8l0,1c-0.4,0-0.9,0-1.3-0.1l0.7-13v-0.1l0.1-1.2l-6.3-9.8l6.3,8.9
	l0,0.3l0.5-9.8l-5.4-10.1l5.5,8.4L201.6,0l0,0l-0.1,16.1l5.4-6.3l-5.4,7.8l-0.1,8.8l5-8.4l-5.1,9.7l-0.1,4.9l7.3-11.7l-7.3,13.4
	L201.1,45.1z"/>
	<path id="Path_3" class="ddst0" d="M39.8,43.5c0,7.8-4.6,10.5-10.3,10.5h-0.4c-0.3,0-0.5,0-0.8,0c-5.1-0.4-9.2-3.2-9.2-10.5
	c0-7.5,9.6-16.9,10.3-17.6l0,0l0,0C29.4,25.8,39.8,35.7,39.8,43.5z"/>
	<path id="Path_4" class="ddst1" d="M29.1,52.8l3.8-5.3l-3.8,5.9V54c-0.3,0-0.5,0-0.8,0l0.4-7.8v-0.1l0,0l0-0.7L25,39.5l3.8,5.3v0.1
	l0.3-5.9L25.8,33l3.3,5l0.3-12.2v0l-0.1,9.6l3.3-3.8l-3.2,4.7l-0.1,5.3l3-5.1l-3,5.8l-0.1,2.9l4.4-7l-4.4,8.1L29.1,52.8z"/>
	<g id="Group_9" transform="translate(153.441 22.453)" class="ddst2">
		<g id="Group_7" transform="translate(10.049)" class="ddst3">

			<linearGradient id="Path_5_1_" gradientUnits="userSpaceOnUse" x1="-702.2274" y1="393.9707" x2="-702.2274" y2="392.9707" gradientTransform="matrix(9.475 0 0 -37.585 6658.3247 14631.0576)">
				<stop offset="0" style="stop-color:#808080;stop-opacity:0.251"/>
				<stop offset="0.535" style="stop-color:#808080;stop-opacity:0.122"/>
				<stop offset="1" style="stop-color:#808080;stop-opacity:0.102"/>
			</linearGradient>
			<path id="Path_5" class="ddst4" d="M9.5-0.1v37.6H0V-0.1H9.5z"/>
		</g>
		<g id="Group_8" class="ddst3">

			<linearGradient id="Path_6_1_" gradientUnits="userSpaceOnUse" x1="-692.087" y1="393.9707" x2="-692.087" y2="392.9707" gradientTransform="matrix(9.446 0 0 -37.585 6542.166 14631.0576)">
				<stop offset="0" style="stop-color:#808080;stop-opacity:0.251"/>
				<stop offset="0.535" style="stop-color:#808080;stop-opacity:0.122"/>
				<stop offset="1" style="stop-color:#808080;stop-opacity:0.102"/>
			</linearGradient>
			<path id="Path_6" class="ddst5" d="M9.4-0.1v37.6H0V-0.1H9.4z"/>
		</g>
	</g>
	<path id="Path_7" class="ddst6" d="M20.3,49.8H37c2.3,0,4.1,1.8,4.1,4.1c0,0,0,0,0,0v2.4c0,2.3-1.8,4.1-4.1,4.1c0,0,0,0,0,0H20.3
	c-2.3,0-4.1-1.8-4.1-4.1c0,0,0,0,0,0v-2.4C16.2,51.7,18,49.8,20.3,49.8C20.3,49.8,20.3,49.8,20.3,49.8z"/>
	<g id="Group_13" transform="translate(62.823 21.592)" class="ddst2">
		<g id="Group_10" transform="translate(0 1.149)" class="ddst3">

			<linearGradient id="Path_8_1_" gradientUnits="userSpaceOnUse" x1="-601.5605" y1="393.0487" x2="-601.5605" y2="392.0487" gradientTransform="matrix(9.475 0 0 -37.585 5704.5269 14620.2334)">
				<stop offset="0" style="stop-color:#808080;stop-opacity:0.251"/>
				<stop offset="0.535" style="stop-color:#808080;stop-opacity:0.122"/>
				<stop offset="1" style="stop-color:#808080;stop-opacity:0.102"/>
			</linearGradient>
			<path id="Path_8" class="ddst7" d="M0-0.1v37.6h9.5V-0.1H0z"/>
		</g>
		<g id="Group_11" transform="translate(10.078 1.149)" class="ddst3">

			<linearGradient id="Path_9_1_" gradientUnits="userSpaceOnUse" x1="-611.5471" y1="393.0487" x2="-611.5471" y2="392.0487" gradientTransform="matrix(9.446 0 0 -37.585 5781.4063 14620.2334)">
				<stop offset="0" style="stop-color:#808080;stop-opacity:0.251"/>
				<stop offset="0.535" style="stop-color:#808080;stop-opacity:0.122"/>
				<stop offset="1" style="stop-color:#808080;stop-opacity:0.102"/>
			</linearGradient>
			<path id="Path_9" class="ddst8" d="M0-0.1v37.6h9.4V-0.1H0z"/>
		</g>
		<g id="Group_12" transform="translate(19.582)" class="ddst3">

			<linearGradient id="Path_10_1_" gradientUnits="userSpaceOnUse" x1="-635.9337" y1="394.2614" x2="-635.9337" y2="393.2614" gradientTransform="matrix(18.836 0 0 -38.733 11987.8633 15119.5801)">
				<stop offset="0" style="stop-color:#808080;stop-opacity:0.251"/>
				<stop offset="0.535" style="stop-color:#808080;stop-opacity:0.122"/>
				<stop offset="1" style="stop-color:#808080;stop-opacity:0.102"/>
			</linearGradient>
			<path id="Path_10" class="ddst9" d="M18.8,36.2L11,6.8l0,0l-0.5-1.7l0,0L9.2-0.1L0,2.4l1.4,5.2l0,0l0.4,1.3l6.2,23.2l0,0l0.5,1.7
			l0,0l1.3,4.9L18.8,36.2z"/>
		</g>
	</g>
	<rect id="Rectangle_4" x="63.8" y="23.6" class="ddst10" width="9" height="35.7"/>
	<rect id="Rectangle_5" x="63.8" y="28.7" class="ddst6" width="9" height="1.7"/>
	<rect id="Rectangle_6" x="63.8" y="52.8" class="ddst6" width="9" height="1.7"/>
	<rect id="Rectangle_7" x="70.5" y="23.6" class="ddst11" width="2.2" height="35.7"/>
	<rect id="Rectangle_8" x="73.4" y="23.6" class="ddst10" width="9" height="35.7"/>
	<rect id="Rectangle_9" x="73.4" y="28.7" class="ddst6" width="9" height="1.7"/>
	<rect id="Rectangle_10" x="73.4" y="52.8" class="ddst6" width="9" height="1.7"/>
	<rect id="Rectangle_11" x="80.1" y="23.6" class="ddst11" width="2.2" height="35.7"/>
	<rect id="Rectangle_12" x="86.8" y="23.1" transform="matrix(0.9662 -0.2577 0.2577 0.9662 -7.457 24.9158)" class="ddst10" width="9" height="35.7"/>
	<rect id="Rectangle_13" x="83.8" y="28.5" transform="matrix(0.9662 -0.2577 0.2577 0.9662 -4.5859 23.7335)" class="ddst6" width="9" height="1.7"/>
	<rect id="Rectangle_14" x="90" y="51.9" transform="matrix(0.9662 -0.2577 0.2577 0.9662 -10.3909 26.1275)" class="ddst6" width="9" height="1.7"/>
	<rect id="Rectangle_15" x="93.5" y="22.2" transform="matrix(0.9662 -0.2577 0.2577 0.9662 -7.1248 25.7269)" class="ddst11" width="2.2" height="35.7"/>
	<rect id="Rectangle_16" x="162.8" y="23.6" class="ddst10" width="9" height="35.7"/>
	<rect id="Rectangle_17" x="162.8" y="28.7" class="ddst6" width="9" height="1.7"/>
	<rect id="Rectangle_18" x="162.8" y="52.8" class="ddst6" width="9" height="1.7"/>
	<rect id="Rectangle_19" x="162.8" y="23.6" class="ddst11" width="2.2" height="35.7"/>
	<rect id="Rectangle_20" x="153.2" y="23.6" class="ddst10" width="9" height="35.7"/>
	<rect id="Rectangle_21" x="153.2" y="28.7" class="ddst6" width="9" height="1.7"/>
	<rect id="Rectangle_22" x="153.2" y="52.8" class="ddst6" width="9" height="1.7"/>
	<rect id="Rectangle_23" x="153.2" y="23.6" class="ddst11" width="2.2" height="35.7"/>
	<path id="Path_11" class="ddst6" d="M184.4,42.3H217c0,0,6.4,8.2-3.6,20.4h-25.7C187.7,62.7,178.4,54.2,184.4,42.3z"/>
	<g id="Group_14" transform="translate(184.192 42.322)" class="ddst3">
		<path id="Path_12" d="M32.8-0.1H0.2C0.1,0.1,0.1,0.2,0,0.4h31.7c0,0,6.3,8-3.2,20h0.7C39.2,8.1,32.8-0.1,32.8-0.1z"/>
	</g>
	<rect id="Rectangle_24" y="59" class="ddst12" width="226" height="7.7"/>
	<rect id="Rectangle_25" x="9.6" y="66.6" class="ddst12" width="206.9" height="3.1"/>
	<rect id="Rectangle_26" x="9.6" y="66.6" class="ddst11" width="206.9" height="1"/>
</svg>
