<svg class="hero-logo" version="1.1" id="Layer_1" 
	xmlns="http://www.w3.org/2000/svg" 
	xmlns:xlink="http://www.w3.org/1999/xlink" x="0px" y="0px" viewBox="0 0 216.5 51.9" style="enable-background:new 0 0 216.5 51.9;" xml:space="preserve">
	<style type="text/css">
	.st0{fill:#007ACC;}
	</style>
	<path class="st0" d="M26.7,4.7H15.6V39h-4.5V4.7H0V0.6h26.6v4.1C26.6,4.7,26.7,4.7,26.7,4.7z"/>
	<path class="st0" d="M48,11.6L35.4,43.4c-2.3,5.7-5.4,8.5-9.5,8.5c-1.1,0-2.1-0.1-2.9-0.3v-3.9c0.9,0.3,1.8,0.5,2.6,0.5
	c2.2,0,3.9-1.3,5-4l2.2-5.2L22.1,11.6H27l7.4,21.1c0.1,0.3,0.3,1,0.6,2.1h0.2c0.1-0.4,0.3-1.1,0.5-2l7.8-21.2
	C43.5,11.6,48,11.6,48,11.6z M55.4,35.1L55.4,35.1l-0.1,16.6h-4.4v-40h4.4v4.8h0.1c2.2-3.6,5.3-5.5,9.5-5.5c3.5,0,6.3,1.2,8.3,3.7
	s3,5.7,3,9.9c0,4.6-1.1,8.3-3.3,11s-5.3,4.1-9.2,4.1C60.1,39.7,57.4,38.2,55.4,35.1z M55.3,24v3.8c0,2.3,0.7,4.2,2.2,5.8
	s3.3,2.4,5.6,2.4c2.7,0,4.7-1,6.3-3.1s2.3-4.9,2.3-8.5c0-3.1-0.7-5.4-2.1-7.2c-1.4-1.7-3.3-2.6-5.7-2.6c-2.6,0-4.6,0.9-6.2,2.7
	C56.1,19.1,55.3,21.3,55.3,24L55.3,24z M103.3,26.4H83.9c0.1,3.1,0.9,5.4,2.5,7.1s3.7,2.5,6.5,2.5c3.1,0,5.9-1,8.5-3.1V37
	c-2.4,1.8-5.6,2.6-9.6,2.6c-3.9,0-6.9-1.2-9.1-3.7c-2.2-2.5-3.3-6-3.3-10.5c0-4.3,1.2-7.7,3.6-10.4c2.4-2.7,5.4-4,9-4
	s6.4,1.2,8.3,3.5c2,2.3,2.9,5.5,2.9,9.7v2.2L103.3,26.4L103.3,26.4z M98.8,22.7c0-2.5-0.6-4.5-1.8-5.9c-1.2-1.4-2.9-2.1-5-2.1
	c-2.1,0-3.8,0.7-5.3,2.2c-1.4,1.5-2.3,3.4-2.7,5.8H98.8z M105.7,37.7v-3c2.8,1.8,5.5,2.6,8.4,2.6c3,0,5.3-0.6,6.8-1.9
	c1.6-1.2,2.3-3,2.3-5.2c0-2-0.5-3.5-1.6-4.7c-1-1.2-3.3-2.8-6.8-4.8c-3.9-2.3-6.4-4.2-7.4-5.7s-1.6-3.3-1.6-5.3c0-2.7,1.1-5,3.2-6.9
	c2.1-1.9,4.9-2.8,8.4-2.8c2.3,0,4.6,0.4,6.9,1.2V4c-2.3-1-4.7-1.5-7.2-1.5c-2.6,0-4.7,0.7-6.2,2s-2.3,3-2.3,5s0.5,3.5,1.6,4.7
	c1,1.2,3.3,2.7,6.8,4.7c3.6,2,6,3.8,7.2,5.4c1.2,1.6,1.8,3.4,1.8,5.5c0,2.9-1,5.3-3.1,7.2c-2,1.9-4.9,2.8-8.7,2.8
	c-1.3,0-2.8-0.2-4.6-0.6C108,38.7,106.7,38.2,105.7,37.7L105.7,37.7z M149.2,37.8c-2,1.2-4.5,1.9-7.3,1.9c-3.7,0-6.7-1.3-9-3.8
	c-2.3-2.6-3.4-5.9-3.4-10.1c0-4.4,1.3-7.9,3.9-10.7c2.6-2.8,5.9-4.2,9.9-4.2c2.1,0,4.1,0.4,6.1,1.3V15c-2-1.2-4.1-1.8-6.5-1.8
	c-3.2,0-5.8,1.2-7.8,3.5s-3,5.3-3,9c0,3.6,0.9,6.4,2.7,8.6c1.8,2.2,4.2,3.2,7.2,3.2c2.7,0,5.1-0.7,7.2-2.2L149.2,37.8L149.2,37.8z
	 M165.8,14.2c-0.8-0.6-1.8-0.9-2.9-0.9c-2.2,0-4,1.1-5.4,3.3c-1.5,2.2-2.2,5.4-2.2,9.5V39h-2.4V11.6h2.4v6.1h0.1
	c0.6-2.1,1.6-3.7,3-4.9c1.4-1.2,2.9-1.7,4.7-1.7c1,0,1.9,0.2,2.7,0.5C165.8,11.6,165.8,14.2,165.8,14.2z M170,4.7
	c-0.5,0-1-0.2-1.4-0.6c-0.4-0.4-0.6-0.9-0.6-1.5s0.2-1.1,0.6-1.4c0.4-0.4,0.9-0.5,1.4-0.5c0.6,0,1,0.2,1.5,0.5
	c0.4,0.4,0.6,0.8,0.6,1.4s-0.2,1.1-0.6,1.5C171,4.5,170.6,4.7,170,4.7z M168.8,39.1V11.7h2.5v27.4H168.8z M179.9,34.2L179.9,34.2
	l-0.1,17.5h-2.5v-40h2.5v5.7h0.1c1-2,2.4-3.6,4.2-4.7c1.8-1.1,3.8-1.6,6-1.6c3.5,0,6.2,1.2,8.2,3.6s2.9,5.7,2.9,9.8
	c0,4.6-1.1,8.3-3.4,11.1c-2.2,2.8-5.2,4.2-8.9,4.2C184.9,39.7,181.9,37.9,179.9,34.2z M179.8,24v3.5c0,2.8,0.9,5.1,2.6,7.1
	c1.7,2,4,3,6.8,3c2.8,0,5.1-1.2,6.8-3.6c1.7-2.4,2.6-5.6,2.6-9.5c0-3.4-0.8-6.2-2.4-8.2c-1.6-2-3.8-3-6.4-3c-3.2,0-5.7,1.1-7.4,3.2
	C180.7,18.6,179.8,21.1,179.8,24L179.8,24z M216.5,38.7c-1.3,0.6-2.5,0.9-3.6,0.9c-4.1,0-6.1-2.4-6.1-7.3V13.9h-4.9v-2.3h4.9V4.5
	c0.4-0.1,0.8-0.3,1.2-0.4s0.8-0.3,1.2-0.4v8h7.2V14h-7.2v18.1c0,1.9,0.3,3.3,0.9,4.1c0.6,0.8,1.6,1.3,3,1.3c1,0,2.1-0.3,3.3-1v2.2
	L216.5,38.7L216.5,38.7z"/>
</svg>
