<?xml version="1.0" encoding="utf-8"?>
<!-- Generator: Adobe Illustrator 23.0.2, SVG Export Plug-In . SVG Version: 6.00 Build 0)  -->
<svg version="1.1" id="Layer_1" 
	xmlns="http://www.w3.org/2000/svg" 
	xmlns:xlink="http://www.w3.org/1999/xlink" x="0px" y="0px" viewBox="0 0 31 12.1" style="enable-background:new 0 0 31 12.1;" xml:space="preserve">
	<style type="text/css">
	.st0zz{fill:#CB3837;}
	.st1zz{fill:#FFFFFF;}
	</style>
	<path class="st0zz" d="M0,0h31v10.3H15.5v1.7H8.6v-1.7H0V0z M1.7,8.6h3.4V3.4h1.7v5.2h1.7V1.7H1.7V8.6z M10.3,1.7v8.6h3.4V8.6h3.4V1.7
	H10.3z M13.8,3.4h1.7v3.4h-1.7V3.4z M18.9,1.7v6.9h3.4V3.4h1.7v5.2h1.7V3.4h1.7v5.2h1.7V1.7H18.9z"/>
	<polygon class="st1zz" points="1.7,8.6 5.2,8.6 5.2,3.4 6.9,3.4 6.9,8.6 8.6,8.6 8.6,1.7 1.7,1.7 "/>
	<path class="st1zz" d="M10.3,1.7v8.6h3.4V8.6h3.4V1.7H10.3z M15.5,6.9h-1.7V3.4h1.7V6.9z"/>
	<polygon class="st1zz" points="18.9,1.7 18.9,8.6 22.4,8.6 22.4,3.4 24.1,3.4 24.1,8.6 25.8,8.6 25.8,3.4 27.6,3.4 27.6,8.6 29.3,8.6 
	29.3,1.7 "/>
</svg>
