<svg class="hero-logo" 
    xmlns="http://www.w3.org/2000/svg" 
    xmlns:xlink="http://www.w3.org/1999/xlink" id="Layer_1" x="0px" y="0px" viewBox="0 0 102.047 102.047" style="enable-background:new 0 0 102.047 102.047;" xml:space="preserve">
    <style type="text/css"> .st0{fill:none;} .st1{fill:#0065A9;} .st2{fill:#007ACC;} .st3{fill:#1F9CF0;} .st4{opacity:0.25;} .st5{fill-rule:evenodd;clip-rule:evenodd;fill:url(#SVGID_1_);} </style>
    <g>
        <path class="st1" d="M95.627,13.388l-19.78-9.524c-2.29-1.102-5.026-0.637-6.823,1.159L4.27,64.063 c-1.742,1.588-1.74,4.33,0.004,5.916l5.289,4.808c1.426,1.296,3.573,1.392,5.108,0.227L92.65,15.859 c2.616-1.985,6.373-0.119,6.373,3.165v-0.23C99.024,16.489,97.703,14.388,95.627,13.388z"></path>
        <g>
            <path class="st2" d="M95.627,88.659l-19.78,9.524c-2.29,1.102-5.026,0.637-6.823-1.16L4.27,37.984 c-1.742-1.588-1.74-4.33,0.004-5.916l5.289-4.808c1.426-1.296,3.573-1.392,5.108-0.227L92.65,86.188 c2.616,1.985,6.373,0.119,6.373-3.165v0.23C99.024,85.558,97.703,87.659,95.627,88.659z"></path>
        </g>
        <g>
            <path class="st3" d="M75.847,98.185c-2.29,1.101-5.027,0.636-6.824-1.161c2.214,2.214,6,0.646,6-2.485V7.509 c0-3.131-3.786-4.699-6-2.485c1.797-1.797,4.533-2.263,6.824-1.161l19.777,9.511c2.078,0.999,3.4,3.101,3.4,5.407v64.487 c0,2.306-1.322,4.408-3.4,5.407L75.847,98.185z"></path>
        </g>
        <g class="st4">
            <linearGradient id="SVGID_1_" gradientUnits="userSpaceOnUse" x1="50.9653" y1="754.9826" x2="50.9653" y2="850.4882" gradientTransform="matrix(1 0 0 1 0 -751.7121)">
                <stop offset="0" style="stop-color:#FFFFFF"></stop>
                <stop offset="1" style="stop-color:#FFFFFF;stop-opacity:0"></stop>
            </linearGradient>
            <path class="st5" d="M71.041,98.368c1.512,0.589,3.236,0.551,4.762-0.183l19.765-9.51c2.077-0.999,3.398-3.101,3.398-5.407V18.78 c0-2.306-1.321-4.408-3.398-5.407L75.803,3.862c-2.003-0.964-4.347-0.728-6.105,0.55c-0.251,0.183-0.49,0.386-0.715,0.611 l-37.837,34.52l-16.481-12.51c-1.534-1.164-3.68-1.069-5.105,0.227l-5.286,4.808c-1.743,1.585-1.745,4.327-0.004,5.916 l14.293,13.04L4.269,64.064c-1.741,1.588-1.739,4.33,0.004,5.916l5.286,4.808c1.425,1.296,3.571,1.392,5.105,0.227l16.481-12.51 l37.837,34.52C69.582,97.623,70.285,98.074,71.041,98.368z M74.98,29.231L46.27,51.024l28.71,21.793 C74.98,72.817,74.98,29.231,74.98,29.231z"></path>
        </g>
    </g>
</svg> 