<?xml version="1.0" encoding="utf-8"?>
<!-- Generator: Adobe Illustrator 17.0.0, SVG Export Plug-In . SVG Version: 6.00 Build 0)  -->
<!DOCTYPE svg PUBLIC "-//W3C//DTD SVG 1.1//EN" "http://www.w3.org/Graphics/SVG/1.1/DTD/svg11.dtd">
<svg version="1.1" id="Calque_1" xmlns="http://www.w3.org/2000/svg" xmlns:xlink="http://www.w3.org/1999/xlink" x="0px" y="0px"
	 width="1130px" height="563px" viewBox="0 0 1130 563" enable-background="new 0 0 1130 563" xml:space="preserve">
<g id="Shadow">
	<g>
		<ellipse fill-rule="evenodd" clip-rule="evenodd" fill="#303030" cx="570.904" cy="500.491" rx="155.505" ry="5.149"/>
	</g>
</g>
<g id="Stand">
	<g>
		<polygon fill-rule="evenodd" clip-rule="evenodd" fill="#E9EBEC" points="648.593,490.132 630.171,426.683 506.408,426.683 
			487.986,490.132 465.507,493.077 465.507,498.935 671.072,498.935 671.072,493.077 		"/>
	</g>
</g>
<g id="Shadow_1_" opacity="0.102">
	<g>
		<polygon fill-rule="evenodd" clip-rule="evenodd" fill="#484E5D" points="630.171,426.683 506.408,426.683 502.421,440.414 
			634.158,440.414 		"/>
	</g>
</g>
<g id="iMac_base">
	<g>
		<path fill-rule="evenodd" clip-rule="evenodd" fill="#E9EBEC" d="M866.363,1H270.262c-7.634,0-13.823,6.148-13.823,13.732v355.307
			h623.746V14.732C880.186,7.148,873.997,1,866.363,1z"/>
	</g>
</g>
<g id="iMac_bottom_base">
	<g>
		<path fill-rule="evenodd" clip-rule="evenodd" fill="#E9EBEC" d="M256.44,370.039v42.912c0,7.584,6.189,13.732,13.823,13.732
			h596.101c7.634,0,13.823-6.148,13.823-13.732v-42.912H256.44z"/>
	</g>
</g>
<g id="Screen">
	<g>
		<rect x="280.629" y="25.031" fill-rule="evenodd" clip-rule="evenodd" fill="#6bc4ea" width="575.367" height="320.979"/>
	</g>
</g>
<g id="Camera">
	<g>
		<ellipse fill-rule="evenodd" clip-rule="evenodd" fill="#A5ADBD" cx="569.177" cy="12.971" rx="2.949" ry="2.93"/>
	</g>
</g>
<g id="Shadow_2_">
	<g>
		<ellipse fill-rule="evenodd" clip-rule="evenodd" fill="#303030" cx="278.901" cy="557.134" rx="279.908" ry="6.866"/>
	</g>
</g>
<g id="Macbook_base">
	<g>
		<path fill-rule="evenodd" clip-rule="evenodd" fill="#E9EBEC" d="M467.235,268.768H90.568c-7.634,0-13.823,6.148-13.823,13.731
			V534.82h404.312V282.5C481.057,274.916,474.869,268.768,467.235,268.768z"/>
	</g>
</g>
<g id="Keyboard__x2B__trackpad">
	<g>
		<path fill-rule="evenodd" clip-rule="evenodd" fill="#E9EBEC" d="M24.974,534.82c0.89,13.418,12.121,24.03,25.854,24.03h456.147
			c13.732,0,24.964-10.612,25.854-24.03H24.974z"/>
	</g>
</g>
<g id="Open">
	<g>
		<path fill-rule="evenodd" clip-rule="evenodd" fill="#D8DBDD" d="M242.791,534.82c0.801,3.917,4.286,6.865,8.465,6.865h55.453
			c4.179,0,7.664-2.948,8.465-6.865H242.791z"/>
	</g>
</g>
<g id="Screen_1_">
	<g>
		<rect x="90.568" y="282.5" fill-rule="evenodd" clip-rule="evenodd" fill="#F3555A" width="376.667" height="238.589"/>
	</g>
</g>
<g id="Camera_1_">
	<g>
		<ellipse fill-rule="evenodd" clip-rule="evenodd" fill="#A5ADBD" cx="278.901" cy="275.59" rx="2.949" ry="2.93"/>
	</g>
</g>
<g id="Shadow_3_">
	<g>
		<ellipse fill-rule="evenodd" clip-rule="evenodd" fill="#303030" cx="835.262" cy="522.805" rx="122.849" ry="6.866"/>
	</g>
</g>
<g id="iPad_base">
	<g>
		<path fill-rule="evenodd" clip-rule="evenodd" fill="#E9EBEC" d="M933.749,220.707H736.776c-9.542,0-17.278,7.685-17.278,17.165
			V505.64c0,9.48,7.736,17.165,17.278,17.165h196.973c9.542,0,17.278-7.685,17.278-17.165V237.872
			C951.027,228.393,943.291,220.707,933.749,220.707z"/>
	</g>
</g>
<g id="Screen_2_">
	<g>
		<rect x="741.96" y="251.604" fill-rule="evenodd" clip-rule="evenodd" fill="#F9E79B" width="186.605" height="240.305"/>
	</g>
</g>
<g id="Homebutton">
	<g>
		<ellipse fill-rule="evenodd" clip-rule="evenodd" fill="#FFFFFF" cx="835.262" cy="507.314" rx="7.162" ry="7.115"/>
	</g>
</g>
<g id="Speaker__x2B__cam">
	<g>
		<path fill-rule="evenodd" clip-rule="evenodd" fill="#A5ADBD" d="M823.167,236.155c-0.954,0-1.728,0.769-1.728,1.717
			c0,0.948,0.774,1.716,1.728,1.716c0.954,0,1.728-0.768,1.728-1.716C824.895,236.924,824.122,236.155,823.167,236.155z
			 M849.085,236.155h-17.278c-0.954,0-1.728,0.769-1.728,1.717c0,0.948,0.773,1.716,1.728,1.716h17.278
			c0.954,0,1.728-0.768,1.728-1.716C850.813,236.924,850.039,236.155,849.085,236.155z"/>
	</g>
</g>
<g id="Shadow_4_">
	<g>
		<ellipse fill-rule="evenodd" clip-rule="evenodd" fill="#303030" cx="1047.785" cy="522.805" rx="81.08" ry="6.866"/>
	</g>
</g>
<g id="iPad_mini_base">
	<g>
		<path fill-rule="evenodd" clip-rule="evenodd" fill="#E9EBEC" d="M1111.715,285.933H985.583c-9.543,0-17.278,7.685-17.278,17.165
			V505.64c0,9.48,7.736,17.165,17.278,17.165h126.132c9.542,0,17.278-7.685,17.278-17.165V303.098
			C1128.993,293.618,1121.257,285.933,1111.715,285.933z"/>
	</g>
</g>
<g id="Screen_3_">
	<g>
		<rect x="975.217" y="308.247" fill-rule="evenodd" clip-rule="evenodd" fill="#F38C26" width="146.866" height="190.528"/>
	</g>
</g>
<g id="Homebutton_1_">
	<g>
		<ellipse fill-rule="evenodd" clip-rule="evenodd" fill="#FFFFFF" cx="1046.057" cy="510.747" rx="7.162" ry="7.115"/>
	</g>
</g>
<g id="Speaker__x2B__cam_1_">
	<g>
		<path fill-rule="evenodd" clip-rule="evenodd" fill="#A5ADBD" d="M1030.507,296.232c-0.954,0-1.728,0.768-1.728,1.716
			c0,0.948,0.774,1.717,1.728,1.717c0.954,0,1.728-0.769,1.728-1.717C1032.235,297,1031.461,296.232,1030.507,296.232z
			 M1056.424,296.232h-17.278c-0.954,0-1.728,0.768-1.728,1.716c0,0.948,0.774,1.717,1.728,1.717h17.278
			c0.954,0,1.728-0.769,1.728-1.717C1058.152,297,1057.379,296.232,1056.424,296.232z"/>
	</g>
</g>
<g id="Shadow_5_">
	<g>
		<ellipse fill-rule="evenodd" clip-rule="evenodd" fill="#303030" cx="950.163" cy="558.851" rx="59.61" ry="5.149"/>
	</g>
</g>
<g id="iPhone_5_base">
	<g>
		<path fill-rule="evenodd" clip-rule="evenodd" fill="#E9EBEC" d="M983.856,346.009h-65.657c-9.543,0-17.278,7.684-17.278,17.164
			v178.512c0,9.48,7.736,17.165,17.278,17.165h65.657c9.542,0,17.278-7.685,17.278-17.165V363.174
			C1001.134,353.694,993.398,346.009,983.856,346.009z"/>
	</g>
</g>
<g id="screen">
	<g>
		<rect x="907.831" y="376.905" fill-rule="evenodd" clip-rule="evenodd" fill="#139A7F" width="86.391" height="151.049"/>
	</g>
</g>
<g id="Homebutton_2_">
	<g>
		<ellipse fill-rule="evenodd" clip-rule="evenodd" fill="#FFFFFF" cx="951.027" cy="543.36" rx="7.162" ry="7.115"/>
	</g>
</g>
<g id="Speaker__x2B__cam_2_">
	<g>
		<path fill-rule="evenodd" clip-rule="evenodd" fill="#A5ADBD" d="M937.204,361.457c-0.954,0-1.728,0.768-1.728,1.717
			s0.774,1.717,1.728,1.717c0.954,0,1.728-0.768,1.728-1.717S938.158,361.457,937.204,361.457z M963.122,361.457h-17.278
			c-0.954,0-1.728,0.768-1.728,1.717s0.774,1.717,1.728,1.717h17.278c0.954,0,1.728-0.768,1.728-1.717
			S964.076,361.457,963.122,361.457z"/>
	</g>
</g>
</svg>
