<?xml version="1.0" encoding="utf-8"?>
<!-- Generator: Adobe Illustrator 18.1.1, SVG Export Plug-In . SVG Version: 6.00 Build 0)  -->
<svg version="1.1" id="Calque_1" xmlns="http://www.w3.org/2000/svg" xmlns:xlink="http://www.w3.org/1999/xlink" x="0px" y="0px"
	 viewBox="-214 367 183 60" enable-background="new -214 367 183 60" xml:space="preserve">
<g>
	<path fill="#251C1C" d="M-44.4,389c-2.7,0-5-2.2-5-5c0-2.8,2.2-5,5-5c2.8,0,5,2.2,5,5C-39.5,386.8-41.7,389-44.4,389z M-44.4,379.9
		c-2.3,0-4.1,1.8-4.1,4.1s1.8,4.1,4.1,4.1s4.1-1.9,4.1-4.1C-40.3,381.8-42.2,379.9-44.4,379.9z M-43.1,387l-1.4-2.2h-1v2.2h-0.9
		v-5.7h2.3c0.9,0,1.9,0.6,1.9,1.7c0,1.3-1.2,1.7-1.4,1.7l1.5,2.3C-42.1,387-43.1,387-43.1,387z M-44,382h-1.5v1.9h1.4
		c0.5,0,1-0.4,1-0.9C-43,382.3-43.6,382-44,382z"/>
	<path fill="#251C1C" d="M-204.8,397.6c0-10.5,8-17.6,18.4-17.6c8.2,0,12.6,4.6,14.8,9l-7.6,3.6c-1.2-2.7-4-4.9-7.3-4.9
		c-5.5,0-9.5,4.2-9.5,9.8s3.9,9.8,9.5,9.8c3.2,0,6.2-2.2,7.3-4.9l7.6,3.6c-2.2,4.4-6.6,9.1-14.8,9.1
		C-196.9,415.1-204.8,408-204.8,397.6z"/>
	<rect x="-161.7" y="380.5" fill="#251C1C" width="8.7" height="33.9"/>
	<g>
		<rect x="-124" y="394.9" fill="#251C1C" width="9.5" height="19.5"/>
	</g>
	<path fill="#251C1C" d="M-106.9,388.9h-24.5v25.6h-8.7v-33.9h11.2h20.2h3.9c0,0,6.8-0.1,6.8,7.6v26.3h-8.7V388.9z"/>
	<path fill="#251C1C" d="M-70.6,380c-10.4,0-18.1,7.2-18.1,17.5c0,10.3,7.8,17.5,18.1,17.5s18.1-7.2,18.1-17.5
		C-52.5,387.2-60.2,380-70.6,380z M-70.6,407.4c-5.7,0-9.2-4.4-9.2-9.8c0-5.5,3.6-9.8,9.2-9.8c5.7,0,9.2,4.2,9.2,9.8
		C-61.3,403-64.9,407.4-70.6,407.4z"/>
</g>
</svg>
