<?xml version="1.0" encoding="utf-8"?>
<!-- Generator: Adobe Illustrator 18.1.1, SVG Export Plug-In . SVG Version: 6.00 Build 0)  -->
<svg version="1.1" id="Calque_1" xmlns="http://www.w3.org/2000/svg" xmlns:xlink="http://www.w3.org/1999/xlink" x="0px" y="0px"
	 viewBox="-159.6 367 58.8 60" enable-background="new -159.6 367 58.8 60" xml:space="preserve">
<g>
	<g>
		<path fill="#FBB52D" d="M-133.9,416.7h-0.9l-0.1,0.3h-0.6v-0.1l1-2.3h0.3l1,2.3v0.1h-0.6L-133.9,416.7z M-134.3,415.6l-0.3,0.6
			h0.5L-134.3,415.6z"/>
		<path fill="#FBB52D" d="M-131.9,415.8v1.1c-0.2,0-0.4,0-0.6,0v-2.3h0.2l1.2,1.1v-1.1c0.2,0,0.4,0,0.6,0v2.3h-0.2L-131.9,415.8z"/>
		<path fill="#FBB52D" d="M-129,415.8v1.1c-0.2,0-0.4,0-0.6,0v-2.3h0.2l1.2,1.1v-1.1c0.2,0,0.4,0,0.6,0v2.3h-0.2L-129,415.8z"/>
		<path fill="#FBB52D" d="M-125.7,416.5v0.5h-1.2v-0.5h0.3v-1.3h-0.3v-0.5h1.1v0.5h-0.3v1.3H-125.7z"/>
		<path fill="#FBB52D" d="M-124.1,416L-124.1,416l0.5-1.3h0.6v0.1l-1,2.3h-0.3l-1-2.3v-0.1h0.6L-124.1,416z"/>
		<path fill="#FBB52D" d="M-120.8,415.2c-0.3,0-0.5,0-0.9,0v0.3h0.8c0,0.2,0,0.4,0,0.5h-0.8c0,0.1,0,0.3,0,0.4c0.3,0,0.5,0,0.9,0
			c0,0.2,0,0.4,0,0.5c-0.5,0-0.9,0-1.5,0c0-0.8,0-1.6,0-2.3c0.5,0,0.9,0,1.4,0C-120.8,414.8-120.8,415-120.8,415.2z"/>
		<path fill="#FBB52D" d="M-118,416.9L-118,416.9l-0.7,0.1l-0.4-0.7h-0.3v0.7c-0.2,0-0.4,0-0.6,0c0-0.8,0-1.5,0-2.3c0.3,0,0.7,0,1,0
			c0.9,0,1.1,1.1,0.5,1.5L-118,416.9z M-118.9,415.2c-0.1,0-0.3,0-0.4,0c0,0.2,0,0.4,0,0.6h0.4
			C-118.6,415.8-118.6,415.2-118.9,415.2z"/>
		<path fill="#FBB52D" d="M-116.2,416.3c0-0.2-0.2-0.2-0.4-0.2c-0.5,0-0.8-0.2-0.8-0.7c0-1,1.8-1,1.8,0c-0.2,0-0.4,0-0.6,0
			c0-0.3-0.6-0.3-0.6,0c0,0.2,0.2,0.2,0.4,0.2c0.5,0,0.9,0.1,0.9,0.7c0,1-1.9,1-1.9,0c0.2,0,0.4,0,0.6,0
			C-116.9,416.6-116.2,416.6-116.2,416.3z"/>
		<path fill="#FBB52D" d="M-113.5,416.7h-0.9l-0.1,0.3h-0.6v-0.1l1-2.3h0.3l1,2.3v0.1h-0.6L-113.5,416.7z M-113.9,415.6l-0.3,0.6
			h0.5L-113.9,415.6z"/>
		<path fill="#FBB52D" d="M-111.2,416.5v0.5h-1.2v-0.5h0.3v-1.3h-0.3v-0.5h1.1v0.5h-0.3v1.3H-111.2z"/>
		<path fill="#FBB52D" d="M-108.5,416.9L-108.5,416.9l-0.7,0.1l-0.4-0.7h-0.3v0.7c-0.2,0-0.4,0-0.6,0c0-0.8,0-1.5,0-2.3
			c0.3,0,0.7,0,1,0c0.9,0,1.1,1.1,0.5,1.5L-108.5,416.9z M-109.4,415.2c-0.1,0-0.3,0-0.4,0c0,0.2,0,0.4,0,0.6h0.4
			C-109.1,415.8-109.1,415.2-109.4,415.2z"/>
		<path fill="#FBB52D" d="M-106.4,415.2c-0.3,0-0.5,0-0.9,0v0.3h0.8c0,0.2,0,0.4,0,0.5h-0.8c0,0.1,0,0.3,0,0.4c0.3,0,0.5,0,0.9,0
			c0,0.2,0,0.4,0,0.5c-0.5,0-0.9,0-1.5,0c0-0.8,0-1.6,0-2.3c0.5,0,0.9,0,1.4,0C-106.4,414.8-106.4,415-106.4,415.2z"/>
	</g>
	<g>
		<g>
			<line x1="-137.9" y1="389.1" x2="-137.9" y2="389.1"/>
			<path fill="#FBB52D" d="M-137.9,389.8c-0.2,0-0.4-0.1-0.5-0.2c-0.1-0.1-0.2-0.3-0.2-0.5c0-0.2,0.1-0.4,0.2-0.5
				c0.1-0.1,0.3-0.2,0.5-0.2c0.2,0,0.4,0.1,0.5,0.2c0.1,0.1,0.2,0.3,0.2,0.5c0,0.2-0.1,0.4-0.2,0.5
				C-137.5,389.7-137.7,389.8-137.9,389.8z"/>
		</g>
		<g>
			<line x1="-137.9" y1="383.8" x2="-137.9" y2="383.8"/>
			<path fill="#FBB52D" d="M-137.9,384.5c-0.2,0-0.4-0.1-0.5-0.2c-0.1-0.1-0.2-0.3-0.2-0.5c0-0.2,0.1-0.4,0.2-0.5
				c0.1-0.1,0.3-0.2,0.5-0.2c0.2,0,0.4,0.1,0.5,0.2c0.1,0.1,0.2,0.3,0.2,0.5c0,0.2-0.1,0.4-0.2,0.5
				C-137.5,384.5-137.7,384.5-137.9,384.5z"/>
		</g>
		<g>
			<line x1="-141.9" y1="385.8" x2="-141.9" y2="385.8"/>
			<path fill="#FBB52D" d="M-141.9,386.5c-0.2,0-0.4-0.1-0.5-0.2c-0.1-0.1-0.2-0.3-0.2-0.5c0-0.2,0.1-0.4,0.2-0.5
				c0.1-0.1,0.3-0.2,0.5-0.2c0.2,0,0.4,0.1,0.5,0.2c0.1,0.1,0.2,0.3,0.2,0.5c0,0.2-0.1,0.4-0.2,0.5
				C-141.6,386.4-141.8,386.5-141.9,386.5z"/>
		</g>
		<g>
			<line x1="-142.9" y1="390.3" x2="-142.9" y2="390.3"/>
			<path fill="#FBB52D" d="M-142.9,391c-0.2,0-0.4-0.1-0.5-0.2c-0.1-0.1-0.2-0.3-0.2-0.5c0-0.2,0.1-0.4,0.2-0.5
				c0.1-0.1,0.3-0.2,0.5-0.2c0.2,0,0.4,0.1,0.5,0.2c0.1,0.1,0.2,0.3,0.2,0.5c0,0.2-0.1,0.4-0.2,0.5
				C-142.6,390.9-142.8,391-142.9,391z"/>
		</g>
		<g>
			<line x1="-140.1" y1="393.8" x2="-140.1" y2="393.8"/>
			<path fill="#FBB52D" d="M-140.1,394.5c-0.2,0-0.4-0.1-0.5-0.2c-0.1-0.1-0.2-0.3-0.2-0.5c0-0.2,0.1-0.4,0.2-0.5
				c0.1-0.1,0.3-0.2,0.5-0.2c0.2,0,0.4,0.1,0.5,0.2c0.1,0.1,0.2,0.3,0.2,0.5c0,0.2-0.1,0.4-0.2,0.5
				C-139.8,394.4-139.9,394.5-140.1,394.5z"/>
		</g>
		<g>
			<line x1="-135.6" y1="393.8" x2="-135.6" y2="393.8"/>
			<path fill="#FBB52D" d="M-135.6,394.5c-0.2,0-0.4-0.1-0.5-0.2c-0.1-0.1-0.2-0.3-0.2-0.5c0-0.2,0.1-0.4,0.2-0.5
				c0.1-0.1,0.3-0.2,0.5-0.2c0.2,0,0.4,0.1,0.5,0.2c0.1,0.1,0.2,0.3,0.2,0.5c0,0.2-0.1,0.4-0.2,0.5
				C-135.2,394.4-135.4,394.5-135.6,394.5z"/>
		</g>
		<g>
			<line x1="-132.8" y1="390.3" x2="-132.8" y2="390.3"/>
			<path fill="#FBB52D" d="M-132.8,391c-0.2,0-0.4-0.1-0.5-0.2c-0.1-0.1-0.2-0.3-0.2-0.5c0-0.2,0.1-0.4,0.2-0.5
				c0.1-0.1,0.3-0.2,0.5-0.2c0.2,0,0.4,0.1,0.5,0.2c0.1,0.1,0.2,0.3,0.2,0.5c0,0.2-0.1,0.4-0.2,0.5
				C-132.4,390.9-132.6,391-132.8,391z"/>
		</g>
		<g>
			<line x1="-133.8" y1="385.8" x2="-133.8" y2="385.8"/>
			<path fill="#FBB52D" d="M-133.8,386.5c-0.2,0-0.4-0.1-0.5-0.2c-0.1-0.1-0.2-0.3-0.2-0.5c0-0.2,0.1-0.4,0.2-0.5
				c0.1-0.1,0.3-0.2,0.5-0.2c0.2,0,0.4,0.1,0.5,0.2c0.1,0.1,0.2,0.3,0.2,0.5c0,0.2-0.1,0.4-0.2,0.5
				C-133.4,386.4-133.6,386.5-133.8,386.5z"/>
		</g>
		<g>
			<line x1="-137.9" y1="378.6" x2="-137.9" y2="378.6"/>
			<path fill="#FBB52D" d="M-137.9,379.3c-0.2,0-0.4-0.1-0.5-0.2c-0.1-0.1-0.2-0.3-0.2-0.5c0-0.2,0.1-0.4,0.2-0.5
				c0.1-0.1,0.3-0.2,0.5-0.2c0.2,0,0.4,0.1,0.5,0.2c0.1,0.1,0.2,0.3,0.2,0.5c0,0.2-0.1,0.4-0.2,0.5
				C-137.5,379.2-137.7,379.3-137.9,379.3z"/>
		</g>
		<g>
			<line x1="-142.7" y1="379.8" x2="-142.7" y2="379.8"/>
			<path fill="#FBB52D" d="M-142.7,380.5c-0.2,0-0.4-0.1-0.5-0.2c-0.1-0.1-0.2-0.3-0.2-0.5c0-0.2,0.1-0.4,0.2-0.5s0.3-0.2,0.5-0.2
				s0.4,0.1,0.5,0.2c0.1,0.1,0.2,0.3,0.2,0.5c0,0.2-0.1,0.4-0.2,0.5C-142.3,380.4-142.5,380.5-142.7,380.5z"/>
		</g>
		<g>
			<line x1="-146.5" y1="383.1" x2="-146.5" y2="383.1"/>
			<path fill="#FBB52D" d="M-146.5,383.8c-0.2,0-0.4-0.1-0.5-0.2c-0.1-0.1-0.2-0.3-0.2-0.5c0-0.2,0.1-0.4,0.2-0.5
				c0.1-0.1,0.3-0.2,0.5-0.2c0.2,0,0.4,0.1,0.5,0.2c0.1,0.1,0.2,0.3,0.2,0.5c0,0.2-0.1,0.4-0.2,0.5
				C-146.1,383.7-146.3,383.8-146.5,383.8z"/>
		</g>
		<g>
			<line x1="-148.2" y1="387.8" x2="-148.2" y2="387.8"/>
			<path fill="#FBB52D" d="M-148.2,388.5c-0.2,0-0.4-0.1-0.5-0.2c-0.1-0.1-0.2-0.3-0.2-0.5c0-0.2,0.1-0.4,0.2-0.5
				c0.1-0.1,0.3-0.2,0.5-0.2c0.2,0,0.4,0.1,0.5,0.2c0.1,0.1,0.2,0.3,0.2,0.5c0,0.2-0.1,0.4-0.2,0.5S-148,388.5-148.2,388.5z"/>
		</g>
		<g>
			<line x1="-147.6" y1="392.8" x2="-147.6" y2="392.8"/>
			<path fill="#FBB52D" d="M-147.6,393.5c-0.2,0-0.4-0.1-0.5-0.2c-0.1-0.1-0.2-0.3-0.2-0.5c0-0.2,0.1-0.4,0.2-0.5
				c0.1-0.1,0.3-0.2,0.5-0.2c0.2,0,0.4,0.1,0.5,0.2c0.1,0.1,0.2,0.3,0.2,0.5c0,0.2-0.1,0.4-0.2,0.5
				C-147.3,393.4-147.4,393.5-147.6,393.5z"/>
		</g>
		<g>
			<line x1="-144.8" y1="397" x2="-144.8" y2="397"/>
			<path fill="#FBB52D" d="M-144.8,397.6c-0.2,0-0.4-0.1-0.5-0.2c-0.1-0.1-0.2-0.3-0.2-0.5c0-0.2,0.1-0.4,0.2-0.5s0.3-0.2,0.5-0.2
				c0.2,0,0.4,0.1,0.5,0.2c0.1,0.1,0.2,0.3,0.2,0.5c0,0.2-0.1,0.4-0.2,0.5C-144.4,397.6-144.6,397.6-144.8,397.6z"/>
		</g>
		<g>
			<line x1="-140.4" y1="399.3" x2="-140.4" y2="399.3"/>
			<path fill="#FBB52D" d="M-140.4,400c-0.2,0-0.4-0.1-0.5-0.2c-0.1-0.1-0.2-0.3-0.2-0.5c0-0.2,0.1-0.4,0.2-0.5
				c0.1-0.1,0.3-0.2,0.5-0.2s0.4,0.1,0.5,0.2c0.1,0.1,0.2,0.3,0.2,0.5c0,0.2-0.1,0.4-0.2,0.5C-140,399.9-140.2,400-140.4,400z"/>
		</g>
		<g>
			<line x1="-135.3" y1="399.3" x2="-135.3" y2="399.3"/>
			<path fill="#FBB52D" d="M-135.3,400c-0.2,0-0.4-0.1-0.5-0.2c-0.1-0.1-0.2-0.3-0.2-0.5c0-0.2,0.1-0.4,0.2-0.5
				c0.1-0.1,0.3-0.2,0.5-0.2c0.2,0,0.4,0.1,0.5,0.2c0.1,0.1,0.2,0.3,0.2,0.5c0,0.2-0.1,0.4-0.2,0.5C-135,399.9-135.2,400-135.3,400z
				"/>
		</g>
		<g>
			<line x1="-130.9" y1="397" x2="-130.9" y2="397"/>
			<path fill="#FBB52D" d="M-130.9,397.6c-0.2,0-0.4-0.1-0.5-0.2c-0.1-0.1-0.2-0.3-0.2-0.5c0-0.2,0.1-0.4,0.2-0.5
				c0.1-0.1,0.3-0.2,0.5-0.2c0.2,0,0.4,0.1,0.5,0.2c0.1,0.1,0.2,0.3,0.2,0.5c0,0.2-0.1,0.4-0.2,0.5
				C-130.6,397.6-130.7,397.6-130.9,397.6z"/>
		</g>
		<g>
			<line x1="-128.1" y1="392.8" x2="-128.1" y2="392.8"/>
			<path fill="#FBB52D" d="M-128.1,393.5c-0.2,0-0.4-0.1-0.5-0.2c-0.1-0.1-0.2-0.3-0.2-0.5c0-0.2,0.1-0.4,0.2-0.5
				c0.1-0.1,0.3-0.2,0.5-0.2c0.2,0,0.4,0.1,0.5,0.2c0.1,0.1,0.2,0.3,0.2,0.5c0,0.2-0.1,0.4-0.2,0.5
				C-127.7,393.4-127.9,393.5-128.1,393.5z"/>
		</g>
		<g>
			<line x1="-127.5" y1="387.8" x2="-127.5" y2="387.8"/>
			<path fill="#FBB52D" d="M-127.5,388.5c-0.2,0-0.4-0.1-0.5-0.2c-0.1-0.1-0.2-0.3-0.2-0.5c0-0.2,0.1-0.4,0.2-0.5
				c0.1-0.1,0.3-0.2,0.5-0.2c0.2,0,0.4,0.1,0.5,0.2c0.1,0.1,0.2,0.3,0.2,0.5c0,0.2-0.1,0.4-0.2,0.5
				C-127.1,388.4-127.3,388.5-127.5,388.5z"/>
		</g>
		<g>
			<line x1="-129.2" y1="383.1" x2="-129.2" y2="383.1"/>
			<path fill="#FBB52D" d="M-129.2,383.8c-0.2,0-0.4-0.1-0.5-0.2c-0.1-0.1-0.2-0.3-0.2-0.5c0-0.2,0.1-0.4,0.2-0.5
				c0.1-0.1,0.3-0.2,0.5-0.2c0.2,0,0.4,0.1,0.5,0.2c0.1,0.1,0.2,0.3,0.2,0.5c0,0.2-0.1,0.4-0.2,0.5
				C-128.9,383.7-129.1,383.8-129.2,383.8z"/>
		</g>
		<g>
			<line x1="-133" y1="379.8" x2="-133" y2="379.8"/>
			<path fill="#FBB52D" d="M-133,380.5c-0.2,0-0.4-0.1-0.5-0.2c-0.1-0.1-0.2-0.3-0.2-0.5c0-0.2,0.1-0.4,0.2-0.5
				c0.1-0.1,0.3-0.2,0.5-0.2c0.2,0,0.4,0.1,0.5,0.2c0.1,0.1,0.2,0.3,0.2,0.5c0,0.2-0.1,0.4-0.2,0.5
				C-132.6,380.4-132.8,380.5-133,380.5z"/>
		</g>
		<g>
			<line x1="-137.9" y1="373.3" x2="-137.9" y2="373.3"/>
			<path fill="#FBB52D" d="M-137.9,374c-0.2,0-0.4-0.1-0.5-0.2c-0.1-0.1-0.2-0.3-0.2-0.5c0-0.2,0.1-0.4,0.2-0.5
				c0.1-0.1,0.3-0.2,0.5-0.2c0.2,0,0.4,0.1,0.5,0.2c0.1,0.1,0.2,0.3,0.2,0.5c0,0.2-0.1,0.4-0.2,0.5C-137.5,374-137.7,374-137.9,374z
				"/>
		</g>
		<g>
			<line x1="-142.9" y1="374.2" x2="-142.9" y2="374.2"/>
			<path fill="#FBB52D" d="M-142.9,374.9c-0.2,0-0.4-0.1-0.5-0.2c-0.1-0.1-0.2-0.3-0.2-0.5c0-0.2,0.1-0.4,0.2-0.5
				c0.1-0.1,0.3-0.2,0.5-0.2s0.4,0.1,0.5,0.2c0.1,0.1,0.2,0.3,0.2,0.5c0,0.2-0.1,0.4-0.2,0.5C-142.6,374.8-142.8,374.9-142.9,374.9z
				"/>
		</g>
		<g>
			<line x1="-147.5" y1="376.7" x2="-147.5" y2="376.7"/>
			<path fill="#FBB52D" d="M-147.5,377.4c-0.2,0-0.4-0.1-0.5-0.2c-0.1-0.1-0.2-0.3-0.2-0.5c0-0.2,0.1-0.4,0.2-0.5
				c0.1-0.1,0.3-0.2,0.5-0.2c0.2,0,0.4,0.1,0.5,0.2c0.1,0.1,0.2,0.3,0.2,0.5c0,0.2-0.1,0.4-0.2,0.5
				C-147.1,377.3-147.3,377.4-147.5,377.4z"/>
		</g>
		<g>
			<line x1="-151" y1="380.5" x2="-151" y2="380.5"/>
			<path fill="#FBB52D" d="M-151,381.2c-0.2,0-0.4-0.1-0.5-0.2c-0.1-0.1-0.2-0.3-0.2-0.5c0-0.2,0.1-0.4,0.2-0.5
				c0.1-0.1,0.3-0.2,0.5-0.2c0.2,0,0.4,0.1,0.5,0.2c0.1,0.1,0.2,0.3,0.2,0.5c0,0.2-0.1,0.4-0.2,0.5
				C-150.6,381.1-150.8,381.2-151,381.2z"/>
		</g>
		<g>
			<line x1="-153" y1="385.2" x2="-153" y2="385.2"/>
			<path fill="#FBB52D" d="M-153,385.9c-0.2,0-0.4-0.1-0.5-0.2c-0.1-0.1-0.2-0.3-0.2-0.5c0-0.2,0.1-0.4,0.2-0.5
				c0.1-0.1,0.3-0.2,0.5-0.2c0.2,0,0.4,0.1,0.5,0.2c0.1,0.1,0.2,0.3,0.2,0.5c0,0.2-0.1,0.4-0.2,0.5
				C-152.7,385.8-152.9,385.9-153,385.9z"/>
		</g>
		<g>
			<line x1="-153.5" y1="390.4" x2="-153.5" y2="390.4"/>
			<path fill="#FBB52D" d="M-153.5,391.1c-0.2,0-0.4-0.1-0.5-0.2s-0.2-0.3-0.2-0.5c0-0.2,0.1-0.4,0.2-0.5c0.1-0.1,0.3-0.2,0.5-0.2
				c0.2,0,0.4,0.1,0.5,0.2c0.1,0.1,0.2,0.3,0.2,0.5c0,0.2-0.1,0.4-0.2,0.5C-153.1,391-153.3,391.1-153.5,391.1z"/>
		</g>
		<g>
			<line x1="-152.2" y1="395.4" x2="-152.2" y2="395.4"/>
			<path fill="#FBB52D" d="M-152.2,396.1c-0.2,0-0.4-0.1-0.5-0.2c-0.1-0.1-0.2-0.3-0.2-0.5c0-0.2,0.1-0.4,0.2-0.5
				c0.1-0.1,0.3-0.2,0.5-0.2c0.2,0,0.4,0.1,0.5,0.2s0.2,0.3,0.2,0.5c0,0.2-0.1,0.4-0.2,0.5C-151.8,396-152,396.1-152.2,396.1z"/>
		</g>
		<g>
			<line x1="-149.4" y1="399.8" x2="-149.4" y2="399.8"/>
			<path fill="#FBB52D" d="M-149.4,400.5c-0.2,0-0.4-0.1-0.5-0.2c-0.1-0.1-0.2-0.3-0.2-0.5c0-0.2,0.1-0.4,0.2-0.5
				c0.1-0.1,0.3-0.2,0.5-0.2c0.2,0,0.4,0.1,0.5,0.2c0.1,0.1,0.2,0.3,0.2,0.5c0,0.2-0.1,0.4-0.2,0.5
				C-149,400.4-149.2,400.5-149.4,400.5z"/>
		</g>
		<g>
			<line x1="-145.3" y1="402.9" x2="-145.3" y2="402.9"/>
			<path fill="#FBB52D" d="M-145.3,403.6c-0.2,0-0.4-0.1-0.5-0.2c-0.1-0.1-0.2-0.3-0.2-0.5c0-0.2,0.1-0.4,0.2-0.5
				c0.1-0.1,0.3-0.2,0.5-0.2c0.2,0,0.4,0.1,0.5,0.2c0.1,0.1,0.2,0.3,0.2,0.5c0,0.2-0.1,0.4-0.2,0.5
				C-145,403.6-145.1,403.6-145.3,403.6z"/>
		</g>
		<g>
			<line x1="-140.4" y1="404.6" x2="-140.4" y2="404.6"/>
			<path fill="#FBB52D" d="M-140.4,405.3c-0.2,0-0.4-0.1-0.5-0.2c-0.1-0.1-0.2-0.3-0.2-0.5c0-0.2,0.1-0.4,0.2-0.5
				c0.1-0.1,0.3-0.2,0.5-0.2c0.2,0,0.4,0.1,0.5,0.2c0.1,0.1,0.2,0.3,0.2,0.5c0,0.2-0.1,0.4-0.2,0.5
				C-140.1,405.3-140.2,405.3-140.4,405.3z"/>
		</g>
		<g>
			<line x1="-135.3" y1="404.6" x2="-135.3" y2="404.6"/>
			<path fill="#FBB52D" d="M-135.3,405.3c-0.2,0-0.4-0.1-0.5-0.2c-0.1-0.1-0.2-0.3-0.2-0.5c0-0.2,0.1-0.4,0.2-0.5
				c0.1-0.1,0.3-0.2,0.5-0.2c0.2,0,0.4,0.1,0.5,0.2c0.1,0.1,0.2,0.3,0.2,0.5c0,0.2-0.1,0.4-0.2,0.5
				C-134.9,405.3-135.1,405.3-135.3,405.3z"/>
		</g>
		<g>
			<line x1="-130.2" y1="402.9" x2="-130.2" y2="402.9"/>
			<path fill="#FBB52D" d="M-130.2,403.6c-0.2,0-0.4-0.1-0.5-0.2c-0.1-0.1-0.2-0.3-0.2-0.5c0-0.2,0.1-0.4,0.2-0.5
				c0.1-0.1,0.3-0.2,0.5-0.2c0.2,0,0.4,0.1,0.5,0.2c0.1,0.1,0.2,0.3,0.2,0.5c0,0.2-0.1,0.4-0.2,0.5
				C-129.9,403.6-130,403.6-130.2,403.6z"/>
		</g>
		<g>
			<line x1="-126.3" y1="399.8" x2="-126.3" y2="399.8"/>
			<path fill="#FBB52D" d="M-126.3,400.5c-0.2,0-0.4-0.1-0.5-0.2c-0.1-0.1-0.2-0.3-0.2-0.5c0-0.2,0.1-0.4,0.2-0.5s0.3-0.2,0.5-0.2
				c0.2,0,0.4,0.1,0.5,0.2c0.1,0.1,0.2,0.3,0.2,0.5c0,0.2-0.1,0.4-0.2,0.5C-126,400.4-126.1,400.5-126.3,400.5z"/>
		</g>
		<g>
			<line x1="-123.5" y1="395.4" x2="-123.5" y2="395.4"/>
			<path fill="#FBB52D" d="M-123.5,396.1c-0.2,0-0.4-0.1-0.5-0.2c-0.1-0.1-0.2-0.3-0.2-0.5c0-0.2,0.1-0.4,0.2-0.5
				c0.1-0.1,0.3-0.2,0.5-0.2c0.2,0,0.4,0.1,0.5,0.2c0.1,0.1,0.2,0.3,0.2,0.5c0,0.2-0.1,0.4-0.2,0.5
				C-123.1,396-123.3,396.1-123.5,396.1z"/>
		</g>
		<g>
			<line x1="-122.2" y1="390.4" x2="-122.2" y2="390.4"/>
			<path fill="#FBB52D" d="M-122.2,391.1c-0.2,0-0.4-0.1-0.5-0.2s-0.2-0.3-0.2-0.5c0-0.2,0.1-0.4,0.2-0.5c0.1-0.1,0.3-0.2,0.5-0.2
				c0.2,0,0.4,0.1,0.5,0.2c0.1,0.1,0.2,0.3,0.2,0.5c0,0.2-0.1,0.4-0.2,0.5C-121.9,391-122,391.1-122.2,391.1z"/>
		</g>
		<g>
			<line x1="-122.7" y1="385.2" x2="-122.7" y2="385.2"/>
			<path fill="#FBB52D" d="M-122.7,385.9c-0.2,0-0.4-0.1-0.5-0.2c-0.1-0.1-0.2-0.3-0.2-0.5c0-0.2,0.1-0.4,0.2-0.5
				c0.1-0.1,0.3-0.2,0.5-0.2c0.2,0,0.4,0.1,0.5,0.2c0.1,0.1,0.2,0.3,0.2,0.5c0,0.2-0.1,0.4-0.2,0.5
				C-122.3,385.8-122.5,385.9-122.7,385.9z"/>
		</g>
		<g>
			<line x1="-124.7" y1="380.5" x2="-124.7" y2="380.5"/>
			<path fill="#FBB52D" d="M-124.7,381.2c-0.2,0-0.4-0.1-0.5-0.2c-0.1-0.1-0.2-0.3-0.2-0.5c0-0.2,0.1-0.4,0.2-0.5
				c0.1-0.1,0.3-0.2,0.5-0.2c0.2,0,0.4,0.1,0.5,0.2c0.1,0.1,0.2,0.3,0.2,0.5c0,0.2-0.1,0.4-0.2,0.5
				C-124.4,381.1-124.5,381.2-124.7,381.2z"/>
		</g>
		<g>
			<line x1="-128.2" y1="376.7" x2="-128.2" y2="376.7"/>
			<path fill="#FBB52D" d="M-128.2,377.4c-0.2,0-0.4-0.1-0.5-0.2c-0.1-0.1-0.2-0.3-0.2-0.5c0-0.2,0.1-0.4,0.2-0.5
				c0.1-0.1,0.3-0.2,0.5-0.2c0.2,0,0.4,0.1,0.5,0.2c0.1,0.1,0.2,0.3,0.2,0.5c0,0.2-0.1,0.4-0.2,0.5
				C-127.9,377.3-128,377.4-128.2,377.4z"/>
		</g>
		<g>
			<line x1="-132.8" y1="374.2" x2="-132.8" y2="374.2"/>
			<path fill="#FBB52D" d="M-132.8,374.9c-0.2,0-0.4-0.1-0.5-0.2c-0.1-0.1-0.2-0.3-0.2-0.5c0-0.2,0.1-0.4,0.2-0.5
				c0.1-0.1,0.3-0.2,0.5-0.2c0.2,0,0.4,0.1,0.5,0.2c0.1,0.1,0.2,0.3,0.2,0.5c0,0.2-0.1,0.4-0.2,0.5
				C-132.4,374.8-132.6,374.9-132.8,374.9z"/>
		</g>
	</g>
	<polyline fill="#FBB52D" points="-131.6,406.5 -124.1,398.8 -124.1,398.2 -126.6,398.2 -132.7,404.5 -131.6,406.5 	"/>
	<path fill="#FBB52D" d="M-117.1,398.1c-1.6,0-2.9,0.7-3.9,1.9c-1,1.2-1.5,2.8-1.5,4.5c0,3.7,2.3,6.4,5.4,6.4c1.6,0,2.9-0.7,3.9-1.9
		c1-1.2,1.5-2.8,1.5-4.5C-111.7,400.8-113.9,398.1-117.1,398.1z M-117.1,408.5c-1.6,0-2.8-1.7-2.8-4.1c0-2.4,1.1-4,2.8-4
		c1.6,0,2.8,1.7,2.8,4.1C-114.3,406.9-115.4,408.5-117.1,408.5z"/>
	<polygon fill="#FBB52D" points="-121.4,404.5 -121.4,407 -108.9,407 -109.6,405.7 -108.9,404.5 	"/>
	<rect x="-126.3" y="398.2" fill="#FBB52D" width="2.5" height="12.2"/>
	<polygon fill="#FBB52D" points="-132.9,404.5 -131.8,407 -120.7,407 -120.7,404.5 	"/>
	<path fill="#FBB52D" d="M-117.3,408.5c-1.5-0.2-2.5-1.8-2.5-4c0-2.3,1-3.9,2.5-4v-2.3c-1.4,0.1-2.7,0.7-3.7,1.9
		c-1,1.2-1.5,2.8-1.5,4.5c0,3.6,2.1,6.2,5.1,6.3V408.5z"/>
	<g>
		<path fill="#FBB52D" d="M-111.7,399.9L-111.7,399.9c0-0.9,0.6-1.4,1.4-1.4c0.7,0,1.4,0.4,1.4,1.4v0.2h-1.9c0,0.4,0.2,0.6,0.6,0.6
			c0.3,0,0.4-0.1,0.5-0.3h0.9c-0.1,0.6-0.5,0.9-1.3,0.9C-111,401.2-111.7,400.7-111.7,399.9z M-109.7,399.5c0-0.3-0.2-0.5-0.5-0.5
			c-0.3,0-0.5,0.2-0.5,0.5H-109.7z"/>
	</g>
	<g>
		<g>
			<g>
				<path fill="#FBB52D" d="M-131.3,420.4h-0.5V419h0.5C-130.5,419-130.5,420.4-131.3,420.4z M-131.5,420h0.2c0.4,0,0.4-0.7,0-0.7
					h-0.2V420z"/>
				<path fill="#FBB52D" d="M-129.5,419.3c-0.2,0-0.3,0-0.5,0v0.2h0.4c0,0.1,0,0.2,0,0.3h-0.4c0,0.1,0,0.2,0,0.2c0.2,0,0.3,0,0.5,0
					c0,0.1,0,0.2,0,0.3c-0.3,0-0.5,0-0.8,0c0-0.4,0-0.9,0-1.3c0.3,0,0.5,0,0.8,0C-129.5,419.1-129.5,419.2-129.5,419.3z"/>
				<path fill="#FBB52D" d="M-128.2,420.1h0.5c0,0.1,0,0.2,0,0.3c-0.3,0-0.5,0-0.8,0V419c0.1,0,0.2,0,0.3,0
					C-128.2,419.7-128.2,419.5-128.2,420.1z"/>
				<path fill="#FBB52D" d="M-126.6,420.2h-0.5l-0.1,0.2h-0.3v0l0.6-1.3h0.1l0.6,1.3v0h-0.3L-126.6,420.2z M-126.8,419.6l-0.1,0.3
					h0.3L-126.8,419.6z"/>
			</g>
		</g>
		<g>
			<g>
				<path fill="#FBB52D" d="M-123.6,419c0.5,0,1,0.3,1.1,0.9c-0.2,0-0.4,0-0.6,0c-0.1-0.2-0.3-0.3-0.5-0.3c-0.3,0-0.6,0.3-0.6,0.6
					c0,0.3,0.2,0.6,0.6,0.6c0.3,0,0.5-0.1,0.5-0.4c0.2,0,0.4,0,0.6,0c-0.1,0.7-0.6,0.9-1.1,0.9c-0.6,0-1.2-0.4-1.2-1.2
					C-124.8,419.4-124.2,419-123.6,419z"/>
				<path fill="#FBB52D" d="M-119.8,421.3c-0.2,0-0.4,0-0.6,0v-0.9h-0.7v0.9c-0.2,0-0.4,0-0.6,0V419c0.2,0,0.4,0,0.6,0v0.8h0.7V419
					c0.2,0,0.4,0,0.6,0V421.3z"/>
				<path fill="#FBB52D" d="M-117.5,421h-0.9l-0.1,0.3h-0.6v-0.1l1-2.3h0.3l1,2.3v0.1h-0.6L-117.5,421z M-117.9,419.9l-0.3,0.6h0.5
					L-117.9,419.9z"/>
				<path fill="#FBB52D" d="M-114.2,421.2L-114.2,421.2l-0.7,0.1l-0.4-0.7h-0.3v0.7c-0.2,0-0.4,0-0.6,0c0-0.8,0-1.5,0-2.3
					c0.3,0,0.7,0,1,0c0.9,0,1.1,1.1,0.5,1.5L-114.2,421.2z M-115.1,419.5c-0.1,0-0.3,0-0.4,0c0,0.2,0,0.4,0,0.6h0.4
					C-114.8,420.1-114.8,419.5-115.1,419.5z"/>
				<path fill="#FBB52D" d="M-113.7,419.5c0-0.2,0-0.4,0-0.5h1.7c0,0.2,0,0.4,0,0.5h-0.6v1.8c-0.2,0-0.4,0-0.6,0v-1.8H-113.7z"/>
				<path fill="#FBB52D" d="M-109.9,419.5c-0.3,0-0.5,0-0.9,0v0.3h0.8c0,0.2,0,0.4,0,0.5h-0.8c0,0.1,0,0.3,0,0.4c0.3,0,0.5,0,0.9,0
					c0,0.2,0,0.4,0,0.5c-0.5,0-0.9,0-1.5,0c0-0.8,0-1.6,0-2.3c0.5,0,0.9,0,1.4,0C-109.9,419.2-109.9,419.4-109.9,419.5z"/>
			</g>
		</g>
		<rect x="-131.8" y="421" fill="#FBB52D" width="5.7" height="0.3"/>
	</g>
</g>
</svg>
