<?xml version="1.0" encoding="utf-8"?>
<!-- Generator: Adobe Illustrator 18.1.1, SVG Export Plug-In . SVG Version: 6.00 Build 0)  -->
<svg version="1.1" id="Calque_1" xmlns="http://www.w3.org/2000/svg" xmlns:xlink="http://www.w3.org/1999/xlink" x="0px" y="0px"
	 viewBox="-214 367 183 60" enable-background="new -214 367 183 60" xml:space="preserve">
<g>
	<polygon points="-61.3,370.8 -61.3,368.3 -68.8,368.3 -68.8,425.8 -61.3,425.8 -61.3,423.3 -66.3,423.3 -66.3,398.3 -62.5,398.3 
		-62.5,395.8 -66.3,395.8 -66.3,370.8 	"/>
	<polygon points="-73,368.3 -75.9,368.3 -77.5,407 -79.1,368.3 -82,368.3 -78.8,425.8 -76.3,425.8 	"/>
	<rect x="-90" y="368.3" width="2.5" height="57.5"/>
	<polygon points="-96.3,370.8 -93.8,370.8 -93.8,368.3 -101.3,368.3 -101.3,370.8 -98.8,370.8 -98.8,425.8 -96.3,425.8 	"/>
	<path d="M-105,371.7c0-1-0.5-1.8-1.3-2.4c-0.9-0.6-1.9-1-3-1c-1.2,0-2.3,0.4-3.1,1.1c-0.8,0.7-1.3,1.4-1.3,2.4v50.6
		c0,1,0.5,1.8,1.4,2.4c0.8,0.7,1.9,1.1,3,1.1c1.2,0,2.2-0.4,3.1-1.1c0.9-0.7,1.3-1.4,1.3-2.4v-1.1V371.7z M-107.5,422.3
		c0,0.3-0.2,0.6-0.6,0.8c-0.4,0.2-0.8,0.3-1.3,0.3c-0.5,0-0.9-0.1-1.3-0.3c-0.4-0.2-0.6-0.5-0.6-0.8v-50.6c0-0.3,0.2-0.6,0.6-0.8
		c0.4-0.2,0.8-0.3,1.3-0.3c0.5,0,0.9,0.1,1.3,0.3c0.4,0.3,0.6,0.5,0.6,0.8L-107.5,422.3L-107.5,422.3z"/>
	<polygon points="-120,368.3 -122.1,368.3 -126.3,413.1 -130.4,368.3 -132.5,368.3 -132.5,425.8 -130,425.8 -130.8,394.5 
		-127.1,425.8 -125.4,425.8 -121.9,394.5 -122.5,425.8 -120,425.8 	"/>
	<path d="M-138.8,371.7c0-1-0.5-1.8-1.3-2.4c-0.9-0.6-1.9-1-3-1c-1.2,0-2.3,0.4-3.1,1.1c-0.8,0.7-1.3,1.4-1.3,2.4v50.6
		c0,1,0.5,1.8,1.4,2.4c0.8,0.7,1.9,1.1,3,1.1c1.2,0,2.2-0.4,3.1-1.1c0.9-0.7,1.3-1.4,1.3-2.4v-1.1V371.7z M-141.2,422.3
		c0,0.3-0.2,0.6-0.6,0.8c-0.4,0.2-0.8,0.3-1.3,0.3c-0.5,0-0.9-0.1-1.3-0.3c-0.4-0.2-0.6-0.5-0.6-0.8v-50.6c0-0.3,0.2-0.6,0.6-0.8
		c0.4-0.2,0.8-0.3,1.3-0.3c0.5,0,0.9,0.1,1.3,0.3c0.4,0.3,0.6,0.5,0.6,0.8L-141.2,422.3L-141.2,422.3z"/>
	<path d="M-153.7,419.5v2.8c0,0.3-0.2,0.6-0.6,0.8c-0.4,0.2-0.8,0.3-1.3,0.4c-0.5,0-0.9-0.1-1.3-0.3c-0.4-0.3-0.6-0.5-0.6-0.8v-50.6
		c0-0.3,0.2-0.6,0.6-0.8c0.4-0.2,0.8-0.3,1.3-0.3c0.5,0,0.9,0.1,1.3,0.3c0.4,0.3,0.6,0.5,0.6,0.8v2.8c0.8,0,1.7,0,2.5,0v-2.8
		c0-1-0.5-1.8-1.3-2.4c-0.9-0.6-1.9-1-3-1c-1.2,0-2.3,0.4-3.1,1.1c-0.8,0.7-1.3,1.4-1.3,2.4v50.6c0,1,0.5,1.8,1.4,2.4
		c0.8,0.7,1.9,1.1,3,1.1c1.2,0,2.2-0.4,3.1-1.1c0.9-0.7,1.3-1.4,1.3-2.4v-1.1v-1.8C-152,419.5-153,419.5-153.7,419.5L-153.7,419.5z"
		/>
	<path d="M-165,371.7c0-1-0.5-1.8-1.3-2.4c-0.9-0.6-1.9-1-3-1c-1.2,0-2.3,0.4-3.1,1.1c-0.8,0.7-1.3,1.4-1.3,2.4v50.6
		c0,1,0.5,1.8,1.4,2.4c0.8,0.7,1.9,1.1,3,1.1c1.2,0,2.2-0.4,3.1-1.1c0.9-0.7,1.3-1.4,1.3-2.4v-1.1V371.7z M-167.5,422.3
		c0,0.3-0.2,0.6-0.6,0.8c-0.4,0.2-0.8,0.3-1.3,0.3c-0.5,0-0.9-0.1-1.3-0.3c-0.4-0.2-0.6-0.5-0.6-0.8v-50.6c0-0.3,0.2-0.6,0.6-0.8
		c0.4-0.2,0.8-0.3,1.3-0.3c0.5,0,0.9,0.1,1.3,0.3c0.4,0.3,0.6,0.5,0.6,0.8L-167.5,422.3L-167.5,422.3z"/>
	<polygon points="-182.5,368.3 -185,368.3 -185,425.8 -177.5,425.8 -177.5,423.3 -182.5,423.3 	"/>
	<rect x="-186.3" y="418.3" width="123.8" height="2.5"/>
	<rect x="-186.3" y="373.3" width="123.8" height="2.5"/>
</g>
</svg>
